<svg xmlns="http://www.w3.org/2000/svg" width="12.5" height="12.5">
    <path fill="none" stroke="#5A5A5A" d="M6 .5a5.5 5.5 0 1 1 0 11 5.5 5.5 0 1 1 0-11z"/>
    <path fill="#5A5A5A" fill-rule="evenodd" d="M6.186 7.502a2.7 2.7 0 0 1-.09-.281 1.418 1.418 0 0 1-.045-.371c0-.162.035-.309.106-.442s.16-.262.268-.385c.108-.124.224-.248.348-.371.125-.124.241-.266.349-.426.107-.16.197-.335.268-.525.071-.191.106-.408.106-.652 0-.257-.042-.482-.127-.675a1.355 1.355 0 0 0-.348-.485 1.496 1.496 0 0 0-.516-.295 1.923 1.923 0 0 0-.626-.1c-.481 0-.945.152-1.393.457v1.098c.369-.421.756-.632 1.163-.632.126 0 .244.017.354.052a.868.868 0 0 1 .295.159.75.75 0 0 1 .203.267.88.88 0 0 1 .074.373.956.956 0 0 1-.101.437c-.066.134-.15.26-.249.381-.1.12-.208.244-.324.371a4.653 4.653 0 0 0-.324.395 2.23 2.23 0 0 0-.249.439 1.33 1.33 0 0 0-.101.526 2.537 2.537 0 0 0 .095.685h.864zm.012 1.826a.624.624 0 0 0 .172-.447.61.61 0 0 0-.172-.447.541.541 0 0 0-.823 0 .61.61 0 0 0-.172.447c0 .177.057.326.172.447.12.123.258.185.413.185a.56.56 0 0 0 .41-.185z"/>
</svg>
